<svg xmlns="http://www.w3.org/2000/svg" xmlns:xlink="http://www.w3.org/1999/xlink" contentStyleType="text/css" data-diagram-type="DESCRIPTION" height="1001px" preserveAspectRatio="none" style="width:1722px;height:1001px;background:#1B1B1B;" version="1.1" viewBox="0 0 1722 1001" width="1722px" zoomAndPan="magnify"><defs/><g><rect fill="#1B1B1B" height="1001" style="stroke:none;stroke-width:1;" width="1722" x="0" y="0"/><!--cluster guardian--><g class="cluster" data-entity="guardian" data-source-line="4" data-uid="ent0003" id="cluster_guardian"><rect fill="none" height="202" rx="2.5" ry="2.5" style="stroke:#E7E7E7;stroke-width:1;" width="1141.79" x="273.91" y="298"/><text fill="#FFFFFF" font-family="sans-serif" font-size="14" font-weight="bold" lengthAdjust="spacing" textLength="178.2881" x="755.661" y="312.9951">Repo-Guardian CLI/TUI</text></g><!--cluster gitrepo--><g class="cluster" data-entity="gitrepo" data-source-line="18" data-uid="ent0014" id="cluster_gitrepo"><path d="M1554.7,460 C1554.7,450 1630.22,450 1630.22,450 C1630.22,450 1705.74,450 1705.74,460 L1705.74,827 C1705.74,837 1630.22,837 1630.22,837 C1630.22,837 1554.7,837 1554.7,827 L1554.7,460" fill="none" style="stroke:#E7E7E7;stroke-width:1;"/><path d="M1554.7,460 C1554.7,470 1630.22,470 1630.22,470 C1630.22,470 1705.74,470 1705.74,460" fill="none" style="stroke:#E7E7E7;stroke-width:1;"/><text fill="#FFFFFF" font-family="sans-serif" font-size="14" font-weight="bold" lengthAdjust="spacing" textLength="117.0928" x="1571.6736" y="484.9951">.git Repository</text></g><!--cluster github--><g class="cluster" data-entity="github" data-source-line="25" data-uid="ent0019" id="cluster_github"><rect fill="none" height="259" rx="2.5" ry="2.5" style="stroke:#E7E7E7;stroke-width:1;" width="134.62" x="659.58" y="7"/><text fill="#FFFFFF" font-family="sans-serif" font-size="14" font-weight="bold" lengthAdjust="spacing" textLength="54.6875" x="699.5463" y="21.9951">GitHub</text></g><!--entity scan--><g class="entity" data-entity="scan" data-source-line="5" data-uid="ent0004" id="entity_scan"><rect fill="#313139" height="46.2969" rx="2.5" ry="2.5" style="stroke:#E7E7E7;stroke-width:0.5;" width="130.5693" x="661.61" y="421.85"/><rect fill="#313139" height="10" style="stroke:#E7E7E7;stroke-width:0.5;" width="15" x="772.1793" y="426.85"/><rect fill="#313139" height="2" style="stroke:#E7E7E7;stroke-width:0.5;" width="4" x="770.1793" y="428.85"/><rect fill="#313139" height="2" style="stroke:#E7E7E7;stroke-width:0.5;" width="4" x="770.1793" y="432.85"/><text fill="#FFFFFF" font-family="sans-serif" font-size="14" lengthAdjust="spacing" textLength="90.5693" x="676.61" y="454.8451">Scan &amp; Audit</text></g><!--entity dag--><g class="entity" data-entity="dag" data-source-line="6" data-uid="ent0005" id="entity_dag"><rect fill="#313139" height="46.2969" rx="2.5" ry="2.5" style="stroke:#E7E7E7;stroke-width:0.5;" width="125.1689" x="931.23" y="421.85"/><rect fill="#313139" height="10" style="stroke:#E7E7E7;stroke-width:0.5;" width="15" x="1036.3989" y="426.85"/><rect fill="#313139" height="2" style="stroke:#E7E7E7;stroke-width:0.5;" width="4" x="1034.3989" y="428.85"/><rect fill="#313139" height="2" style="stroke:#E7E7E7;stroke-width:0.5;" width="4" x="1034.3989" y="432.85"/><text fill="#FFFFFF" font-family="sans-serif" font-size="14" lengthAdjust="spacing" textLength="85.1689" x="946.23" y="454.8451">DAG Builder</text></g><!--entity repair--><g class="entity" data-entity="repair" data-source-line="7" data-uid="ent0006" id="entity_repair"><rect fill="#313139" height="46.2969" rx="2.5" ry="2.5" style="stroke:#E7E7E7;stroke-width:0.5;" width="137.8838" x="1253.82" y="421.85"/><rect fill="#313139" height="10" style="stroke:#E7E7E7;stroke-width:0.5;" width="15" x="1371.7038" y="426.85"/><rect fill="#313139" height="2" style="stroke:#E7E7E7;stroke-width:0.5;" width="4" x="1369.7038" y="428.85"/><rect fill="#313139" height="2" style="stroke:#E7E7E7;stroke-width:0.5;" width="4" x="1369.7038" y="432.85"/><text fill="#FFFFFF" font-family="sans-serif" font-size="14" lengthAdjust="spacing" textLength="97.8838" x="1268.82" y="454.8451">Repair Engine</text></g><!--entity export--><g class="entity" data-entity="export" data-source-line="8" data-uid="ent0007" id="entity_export"><rect fill="#313139" height="46.2969" rx="2.5" ry="2.5" style="stroke:#E7E7E7;stroke-width:0.5;" width="133.2217" x="1256.15" y="340.85"/><rect fill="#313139" height="10" style="stroke:#E7E7E7;stroke-width:0.5;" width="15" x="1369.3717" y="345.85"/><rect fill="#313139" height="2" style="stroke:#E7E7E7;stroke-width:0.5;" width="4" x="1367.3717" y="347.85"/><rect fill="#313139" height="2" style="stroke:#E7E7E7;stroke-width:0.5;" width="4" x="1367.3717" y="351.85"/><text fill="#FFFFFF" font-family="sans-serif" font-size="14" lengthAdjust="spacing" textLength="93.2217" x="1271.15" y="373.8451">Graph Export</text></g><!--entity tui--><g class="entity" data-entity="tui" data-source-line="9" data-uid="ent0008" id="entity_tui"><rect fill="#313139" height="46.2969" rx="2.5" ry="2.5" style="stroke:#E7E7E7;stroke-width:0.5;" width="130.0566" x="297.91" y="378.85"/><rect fill="#313139" height="10" style="stroke:#E7E7E7;stroke-width:0.5;" width="15" x="407.9666" y="383.85"/><rect fill="#313139" height="2" style="stroke:#E7E7E7;stroke-width:0.5;" width="4" x="405.9666" y="385.85"/><rect fill="#313139" height="2" style="stroke:#E7E7E7;stroke-width:0.5;" width="4" x="405.9666" y="389.85"/><text fill="#FFFFFF" font-family="sans-serif" font-size="14" lengthAdjust="spacing" textLength="90.0566" x="312.91" y="411.8451">TUI Interface</text></g><!--entity objects--><g class="entity" data-entity="objects" data-source-line="19" data-uid="ent0015" id="entity_objects"><path d="M1590.15,667.85 L1631.15,667.85 A3.75,3.75 0 0 1 1633.65,670.35 L1640.65,688.85 L1670.3023,688.85 A2.5,2.5 0 0 1 1672.8023,691.35 L1672.8023,719.6469 A2.5,2.5 0 0 1 1670.3023,722.1469 L1590.15,722.1469 A2.5,2.5 0 0 1 1587.65,719.6469 L1587.65,670.35 A2.5,2.5 0 0 1 1590.15,667.85" fill="#313139" style="stroke:#E7E7E7;stroke-width:0.5;"/><line style="stroke:#E7E7E7;stroke-width:0.5;" x1="1587.65" x2="1640.65" y1="688.85" y2="688.85"/><text fill="#FFFFFF" font-family="sans-serif" font-size="14" lengthAdjust="spacing" textLength="55.1523" x="1597.65" y="708.8451">objects/</text></g><!--entity refs--><g class="entity" data-entity="refs" data-source-line="20" data-uid="ent0016" id="entity_refs"><path d="M1597.72,578.85 L1638.72,578.85 A3.75,3.75 0 0 1 1641.22,581.35 L1648.22,599.85 L1662.72,599.85 A2.5,2.5 0 0 1 1665.22,602.35 L1665.22,630.6469 A2.5,2.5 0 0 1 1662.72,633.1469 L1597.72,633.1469 A2.5,2.5 0 0 1 1595.22,630.6469 L1595.22,581.35 A2.5,2.5 0 0 1 1597.72,578.85" fill="#313139" style="stroke:#E7E7E7;stroke-width:0.5;"/><line style="stroke:#E7E7E7;stroke-width:0.5;" x1="1595.22" x2="1648.22" y1="599.85" y2="599.85"/><text fill="#FFFFFF" font-family="sans-serif" font-size="14" lengthAdjust="spacing" textLength="31.3086" x="1605.22" y="619.8451">refs/</text></g><!--entity head--><g class="entity" data-entity="head" data-source-line="21" data-uid="ent0017" id="entity_head"><path d="M1600.36,510.35 L1600.36,541.6469 A2.5,2.5 0 0 0 1602.86,544.1469 L1657.5905,544.1469 A2.5,2.5 0 0 0 1660.0905,541.6469 L1660.0905,517.85 L1650.0905,507.85 L1602.86,507.85 A2.5,2.5 0 0 0 1600.36,510.35" fill="#313139" style="stroke:#E7E7E7;stroke-width:0.5;"/><path d="M1650.0905,507.85 L1650.0905,515.35 A2.5,2.5 0 0 0 1652.5905,517.85 L1660.0905,517.85" fill="#313139" style="stroke:#E7E7E7;stroke-width:0.5;"/><text fill="#FFFFFF" font-family="sans-serif" font-size="14" lengthAdjust="spacing" textLength="39.7305" x="1610.36" y="530.8451">HEAD</text></g><!--entity packs--><g class="entity" data-entity="packs" data-source-line="22" data-uid="ent0018" id="entity_packs"><path d="M1578.7,759.35 L1578.7,790.6469 A2.5,2.5 0 0 0 1581.2,793.1469 L1679.243,793.1469 A2.5,2.5 0 0 0 1681.743,790.6469 L1681.743,766.85 L1671.743,756.85 L1581.2,756.85 A2.5,2.5 0 0 0 1578.7,759.35" fill="#313139" style="stroke:#E7E7E7;stroke-width:0.5;"/><path d="M1671.743,756.85 L1671.743,764.35 A2.5,2.5 0 0 0 1674.243,766.85 L1681.743,766.85" fill="#313139" style="stroke:#E7E7E7;stroke-width:0.5;"/><text fill="#FFFFFF" font-family="sans-serif" font-size="14" lengthAdjust="spacing" textLength="83.043" x="1588.7" y="779.8451">pack-*.pack</text></g><!--entity ghapi--><g class="entity" data-entity="ghapi" data-source-line="26" data-uid="ent0020" id="entity_ghapi"><rect fill="#313139" height="46.2969" rx="2.5" ry="2.5" style="stroke:#E7E7E7;stroke-width:0.5;" width="62.1484" x="695.82" y="203.85"/><rect fill="#313139" height="10" style="stroke:#E7E7E7;stroke-width:0.5;" width="15" x="737.9684" y="208.85"/><rect fill="#313139" height="2" style="stroke:#E7E7E7;stroke-width:0.5;" width="4" x="735.9684" y="210.85"/><rect fill="#313139" height="2" style="stroke:#E7E7E7;stroke-width:0.5;" width="4" x="735.9684" y="214.85"/><text fill="#FFFFFF" font-family="sans-serif" font-size="14" lengthAdjust="spacing" textLength="22.1484" x="710.82" y="236.8451">API</text></g><!--entity releases--><g class="entity" data-entity="releases" data-source-line="27" data-uid="ent0021" id="entity_releases"><rect fill="#313139" height="46.2969" rx="2.5" ry="2.5" style="stroke:#E7E7E7;stroke-width:0.5;" width="102.624" x="675.58" y="122.85"/><rect fill="#313139" height="10" style="stroke:#E7E7E7;stroke-width:0.5;" width="15" x="758.204" y="127.85"/><rect fill="#313139" height="2" style="stroke:#E7E7E7;stroke-width:0.5;" width="4" x="756.204" y="129.85"/><rect fill="#313139" height="2" style="stroke:#E7E7E7;stroke-width:0.5;" width="4" x="756.204" y="133.85"/><text fill="#FFFFFF" font-family="sans-serif" font-size="14" lengthAdjust="spacing" textLength="62.624" x="690.58" y="155.8451">Releases</text></g><!--entity projects--><g class="entity" data-entity="projects" data-source-line="28" data-uid="ent0022" id="entity_projects"><rect fill="#313139" height="46.2969" rx="2.5" ry="2.5" style="stroke:#E7E7E7;stroke-width:0.5;" width="95.7471" x="679.02" y="41.85"/><rect fill="#313139" height="10" style="stroke:#E7E7E7;stroke-width:0.5;" width="15" x="754.7671" y="46.85"/><rect fill="#313139" height="2" style="stroke:#E7E7E7;stroke-width:0.5;" width="4" x="752.7671" y="48.85"/><rect fill="#313139" height="2" style="stroke:#E7E7E7;stroke-width:0.5;" width="4" x="752.7671" y="52.85"/><text fill="#FFFFFF" font-family="sans-serif" font-size="14" lengthAdjust="spacing" textLength="55.7471" x="694.02" y="74.8451">Projects</text></g><!--entity user--><g class="entity" data-entity="user" data-source-line="3" data-uid="ent0002" id="entity_user"><ellipse cx="21.9551" cy="372.35" fill="#313139" rx="8" ry="8" style="stroke:#E7E7E7;stroke-width:0.5;"/><path d="M21.9551,380.35 L21.9551,407.35 M8.9551,388.35 L34.9551,388.35 M21.9551,407.35 L8.9551,422.35 M21.9551,407.35 L34.9551,422.35" fill="none" style="stroke:#E7E7E7;stroke-width:0.5;"/><text fill="#FFFFFF" font-family="sans-serif" font-size="14" lengthAdjust="spacing" textLength="31.9102" x="6" y="436.8451">User</text></g><g class="entity" data-entity="GMN34" data-source-line="45" data-uid="ent0035" id="entity_GMN34"><path d="M611.97,840.6 L611.97,941.3969 L841.8206,941.3969 L841.8206,850.6 L831.8206,840.6 L611.97,840.6" fill="#714137" style="stroke:#E7E7E7;stroke-width:0.5;"/><path d="M831.8206,840.6 L831.8206,850.6 L841.8206,850.6 L831.8206,840.6" fill="#714137" style="stroke:#E7E7E7;stroke-width:1;"/><text fill="#FFFFFF" font-family="sans-serif" font-size="13" lengthAdjust="spacing" textLength="116.7144" x="617.97" y="857.6669">Key Functionality:</text><text fill="#FFFFFF" font-family="sans-serif" font-size="13" lengthAdjust="spacing" textLength="160.0752" x="617.97" y="872.7997">- Merkle tree verification</text><text fill="#FFFFFF" font-family="sans-serif" font-size="13" lengthAdjust="spacing" textLength="208.8506" x="617.97" y="887.9325">- Binary search for bad commits</text><text fill="#FFFFFF" font-family="sans-serif" font-size="13" lengthAdjust="spacing" textLength="206.0322" x="617.97" y="903.0653">- Jaro-Winkler similarity (&#8805;0.92)</text><text fill="#FFFFFF" font-family="sans-serif" font-size="13" lengthAdjust="spacing" textLength="183.8662" x="617.97" y="918.1981">- Interactive repair workflow</text><text fill="#FFFFFF" font-family="sans-serif" font-size="13" lengthAdjust="spacing" textLength="113.6294" x="617.97" y="933.331">- GraphML export</text></g><!--link scan to dag--><g class="link" data-entity-1="scan" data-entity-2="dag" data-source-line="11" data-uid="lnk9" id="link_scan_dag"><path d="M792.36,445 C834.48,445 883.18,445 924.8,445" fill="none" id="scan-to-dag" style="stroke:#E7E7E7;stroke-width:1;"/><polygon fill="#E7E7E7" points="930.8,445,921.8,441,925.8,445,921.8,449,930.8,445" style="stroke:#E7E7E7;stroke-width:1;"/></g><!--link dag to repair--><g class="link" data-entity-1="dag" data-entity-2="repair" data-source-line="12" data-uid="lnk10" id="link_dag_repair"><path d="M1056.7,445 C1112.79,445 1189.32,445 1247.36,445" fill="none" id="dag-to-repair" style="stroke:#E7E7E7;stroke-width:1;"/><polygon fill="#E7E7E7" points="1253.36,445,1244.36,441,1248.36,445,1244.36,449,1253.36,445" style="stroke:#E7E7E7;stroke-width:1;"/></g><!--link dag to export--><g class="link" data-entity-1="dag" data-entity-2="export" data-source-line="13" data-uid="lnk11" id="link_dag_export"><path d="M1056.7,429.67 C1113.62,415.57 1191.9562,396.1632 1250.1062,381.7532" fill="none" id="dag-to-export" style="stroke:#E7E7E7;stroke-width:1;"/><polygon fill="#E7E7E7" points="1255.93,380.31,1246.2321,378.5922,1251.0768,381.5127,1248.1564,386.3574,1255.93,380.31" style="stroke:#E7E7E7;stroke-width:1;"/></g><!--link tui to scan--><g class="link" data-entity-1="tui" data-entity-2="scan" data-source-line="14" data-uid="lnk12" id="link_tui_scan"><path d="M428.23,409.64 C493.95,417.45 589.4919,428.7922 655.3219,436.6122" fill="none" id="tui-to-scan" style="stroke:#E7E7E7;stroke-width:1;"/><polygon fill="#E7E7E7" points="661.28,437.32,652.8147,432.2863,656.3149,436.7302,651.871,440.2304,661.28,437.32" style="stroke:#E7E7E7;stroke-width:1;"/></g><!--link tui to repair--><g class="link" data-entity-1="tui" data-entity-2="repair" data-source-line="15" data-uid="lnk13" id="link_tui_repair"><path d="M428.23,398.56 C554.42,392.6 843.25,382.92 1084.82,404 C1142.11,409 1200.4696,419.2982 1247.5896,428.8482" fill="none" id="tui-to-repair" style="stroke:#E7E7E7;stroke-width:1;"/><polygon fill="#E7E7E7" points="1253.47,430.04,1245.4439,424.332,1248.5696,429.0468,1243.8548,432.1726,1253.47,430.04" style="stroke:#E7E7E7;stroke-width:1;"/></g><!--link user to tui--><g class="link" data-entity-1="user" data-entity-2="tui" data-source-line="31" data-uid="lnk23" id="link_user_tui"><path d="M38.4,402 C83.47,402 210.74,402 291.49,402" fill="none" id="user-to-tui" style="stroke:#E7E7E7;stroke-width:1;"/><polygon fill="#E7E7E7" points="297.49,402,288.49,398,292.49,402,288.49,406,297.49,402" style="stroke:#E7E7E7;stroke-width:1;"/><text fill="#FFFFFF" font-family="sans-serif" font-size="13" lengthAdjust="spacing" textLength="31.0591" x="143.679" y="383.0669">Uses</text><text fill="#FFFFFF" font-family="sans-serif" font-size="13" lengthAdjust="spacing" textLength="180.5972" x="68.91" y="398.1997">(commands, repair options)</text></g><!--link guardian to gitrepo--><g class="link" data-entity-1="guardian" data-entity-2="gitrepo" data-source-line="32" data-uid="lnk24" id="link_guardian_gitrepo"><path d="M364.9934,500.5625 C365.0211,500.7836 365.0494,501.0088 365.0783,501.238 C365.3091,503.0712 365.5745,505.1584 365.8739,507.4824 C367.0714,516.7788 368.8126,529.8654 371.0595,545.6464 C375.5534,577.2084 382.0706,619.5481 390.3088,663.8988 C406.785,752.6 430.145,849.345 457.97,884 C538.56,984.37 597.17,994 725.89,994 C725.89,994 725.89,994 1323.76,994 C1399.705,994 1474.89,954.03 1531.665,913.435 C1560.0525,893.1375 1583.8375,872.6837 1600.8138,856.9919 C1609.3019,849.1459 1616.0878,842.4905 1620.8958,837.6402 C1621.046,837.4887 1616.9755,841.6052 1617.1219,841.4572" fill="none" id="guardian-to-gitrepo" style="stroke:#E7E7E7;stroke-width:1;"/><polygon fill="#E7E7E7" points="1621.3407,837.1908,1612.1683,840.7778,1617.825,840.7461,1617.8567,846.4029,1621.3407,837.1908" style="stroke:#E7E7E7;stroke-width:1;"/><text fill="#FFFFFF" font-family="sans-serif" font-size="13" lengthAdjust="spacing" textLength="101.4736" x="943.1476" y="975.0669">Reads/analyzes</text><text fill="#FFFFFF" font-family="sans-serif" font-size="13" lengthAdjust="spacing" textLength="161.1289" x="913.32" y="990.1997">(loose objects, packfiles)</text></g><!--link guardian to gitrepo--><g class="link" data-entity-1="guardian" data-entity-2="gitrepo" data-source-line="33" data-uid="lnk25" id="link_guardian_gitrepo"><path d="M383.8839,500.1136 C384.5272,500.373 385.185,500.6382 385.8571,500.9089 C388.5454,501.9917 391.4628,503.1639 394.599,504.4201 C400.8713,506.9327 408.0187,509.7816 415.9594,512.925 C447.7219,525.4988 492.175,542.785 544.0725,562.105 C647.8675,600.745 781.44,647.52 902.82,681 C1060.385,724.465 1240.39,761.2275 1381.7925,787.2413 C1417.1431,793.7447 1450.0811,799.5763 1479.6526,804.6729 C1494.4384,807.2213 1508.3825,809.5858 1521.3658,811.7587 C1527.8575,812.8452 1534.109,813.8837 1540.1053,814.8733 C1543.1035,815.3681 1546.0378,815.8507 1548.9066,816.321 C1550.341,816.5561 1545.8374,815.8207 1547.2388,816.0497" fill="none" id="guardian-to-gitrepo-1" style="stroke:#E7E7E7;stroke-width:1;"/><polygon fill="#E7E7E7" points="1553.1603,817.0171,1544.9229,811.6183,1548.2257,816.2109,1543.6331,819.5137,1553.1603,817.0171" style="stroke:#E7E7E7;stroke-width:1;"/><text fill="#FFFFFF" font-family="sans-serif" font-size="13" lengthAdjust="spacing" textLength="41.6787" x="973.3825" y="662.0669">Writes</text><text fill="#FFFFFF" font-family="sans-serif" font-size="13" lengthAdjust="spacing" textLength="114.8037" x="936.82" y="677.1997">(repairs, rebases)</text></g><!--link guardian to ghapi--><g class="link" data-entity-1="guardian" data-entity-2="ghapi" data-source-line="34" data-uid="lnk26" id="link_guardian_ghapi"><path d="M432.275,297.7069 C432.3127,297.4024 432.3521,297.0981 432.3933,296.794 C432.4756,296.1856 432.5649,295.5778 432.6614,294.9706 C432.8543,293.7562 433.0758,292.544 433.3274,291.3343 C434.3337,286.4951 435.8216,281.6941 437.8868,276.9382 C442.017,267.4264 448.4563,258.095 457.97,249 C522.57,187.24 634.6128,204.1817 689.9028,217.3317" fill="none" id="guardian-to-ghapi" style="stroke:#E7E7E7;stroke-width:1;"/><polygon fill="#E7E7E7" points="695.74,218.72,687.9098,212.7461,690.8757,217.5631,686.0587,220.529,695.74,218.72" style="stroke:#E7E7E7;stroke-width:1;"/><text fill="#FFFFFF" font-family="sans-serif" font-size="13" lengthAdjust="spacing" textLength="110.0366" x="464.97" y="187.0669">Uploads artifacts</text><text fill="#FFFFFF" font-family="sans-serif" font-size="13" lengthAdjust="spacing" textLength="109.9985" x="464.989" y="202.1997">(graphs, reports)</text></g><!--link ghapi to guardian--><g class="link" data-entity-1="ghapi" data-entity-2="guardian" data-source-line="35" data-uid="lnk27" id="link_ghapi_guardian"><path d="M698.72,250.35 C687.175,260.27 672.8975,272.545 657.8013,285.5338 C654.0272,288.7809 650.202,292.0727 646.3554,295.3835 C645.3938,296.2112 648.9782,293.1257 648.0143,293.9554" fill="none" id="ghapi-to-guardian" style="stroke:#E7E7E7;stroke-width:1;"/><polygon fill="#E7E7E7" points="643.4671,297.8697,652.8976,295.0297,647.2565,294.6078,647.6784,288.9667,643.4671,297.8697" style="stroke:#E7E7E7;stroke-width:1;"/><text fill="#FFFFFF" font-family="sans-serif" font-size="13" lengthAdjust="spacing" textLength="122.6558" x="458.97" y="335.0669">Triggers workflows</text><text fill="#FFFFFF" font-family="sans-serif" font-size="13" lengthAdjust="spacing" textLength="85.7822" x="477.4068" y="350.1997">(CI, releases)</text></g><!--link scan to objects--><g class="link" data-entity-1="scan" data-entity-2="objects" data-source-line="37" data-uid="lnk28" id="link_scan_objects"><path d="M792.56,466.73 C869.1,492.14 1000.58,534.81 1114.82,567 C1289.1,616.11 1493.4916,663.9999 1581.4716,684.1599" fill="none" id="scan-to-objects" style="stroke:#E7E7E7;stroke-width:1;"/><polygon fill="#E7E7E7" points="1587.32,685.5,1579.4408,679.5909,1582.4463,684.3832,1577.6539,687.3888,1587.32,685.5" style="stroke:#E7E7E7;stroke-width:1;"/><text fill="#FFFFFF" font-family="sans-serif" font-size="13" lengthAdjust="spacing" textLength="107.8848" x="1115.82" y="563.0669">Verifies integrity</text></g><!--link scan to packs--><g class="link" data-entity-1="scan" data-entity-2="packs" data-source-line="38" data-uid="lnk29" id="link_scan_packs"><path d="M755.48,468.62 C788.52,495.83 846.48,540.2 902.82,567 C1142.41,680.95 1450.9138,743.6234 1572.3838,765.3534" fill="none" id="scan-to-packs" style="stroke:#E7E7E7;stroke-width:1;"/><polygon fill="#E7E7E7" points="1578.29,766.41,1570.135,760.8876,1573.3681,765.5295,1568.7263,768.7626,1578.29,766.41" style="stroke:#E7E7E7;stroke-width:1;"/><text fill="#FFFFFF" font-family="sans-serif" font-size="13" lengthAdjust="spacing" textLength="104.292" x="1117.32" y="648.0669">Parses packfiles</text></g><!--link dag to head--><g class="link" data-entity-1="dag" data-entity-2="head" data-source-line="39" data-uid="lnk30" id="link_dag_head"><path d="M1056.84,461.81 C1109,475.24 1185.72,493.35 1253.82,503 C1382.15,521.18 1531.1705,524.925 1594.3405,525.715" fill="none" id="dag-to-head" style="stroke:#E7E7E7;stroke-width:1;"/><polygon fill="#E7E7E7" points="1600.34,525.79,1591.3907,521.6778,1595.3404,525.7275,1591.2907,529.6771,1600.34,525.79" style="stroke:#E7E7E7;stroke-width:1;"/><text fill="#FFFFFF" font-family="sans-serif" font-size="13" lengthAdjust="spacing" textLength="68.8467" x="1288.76" y="499.0669">Reads refs</text></g><!--link dag to refs--><g class="link" data-entity-1="dag" data-entity-2="refs" data-source-line="40" data-uid="lnk31" id="link_dag_refs"><path d="M1035.2,468.57 C1058.02,481.2 1087.4,496.31 1114.82,507 C1287.24,574.25 1504.6081,596.6748 1588.9681,603.2348" fill="none" id="dag-to-refs" style="stroke:#E7E7E7;stroke-width:1;"/><polygon fill="#E7E7E7" points="1594.95,603.7,1586.2872,599.0143,1589.965,603.3124,1585.667,606.9902,1594.95,603.7" style="stroke:#E7E7E7;stroke-width:1;"/><text fill="#FFFFFF" font-family="sans-serif" font-size="13" lengthAdjust="spacing" textLength="92.0156" x="1276.76" y="548.0669">Traces history</text></g><!--link export to releases--><g class="link" data-entity-1="export" data-entity-2="releases" data-source-line="41" data-uid="lnk32" id="link_export_releases"><path d="M1259.38,340.47 C1167.94,306.06 992.07,240.24 841.82,186 C821.11,178.53 803.8932,172.4421 784.0932,165.5121" fill="none" id="export-to-releases" style="stroke:#E7E7E7;stroke-width:1;"/><polygon fill="#E7E7E7" points="778.43,163.53,785.6033,170.2786,783.1493,165.1818,788.2461,162.7277,778.43,163.53" style="stroke:#E7E7E7;stroke-width:1;"/><text fill="#FFFFFF" font-family="sans-serif" font-size="13" lengthAdjust="spacing" textLength="180.6479" x="903.82" y="205.0669">Uploads recovered.graphml</text></g><!--link repair to gitrepo--><g class="link" data-entity-1="repair" data-entity-2="gitrepo" data-source-line="42" data-uid="lnk33" id="link_repair_gitrepo"><path d="M1392.12,466.54 C1406.7,473.71 1420.93,483.03 1431.7,495 C1530.32,604.6 1428.83,710.69 1538.7,809 C1542.4788,812.38 1546.6981,815.2311 1551.1925,817.6323 C1552.3161,818.2326 1548.0308,816.2439 1549.1862,816.7892" fill="none" id="repair-to-gitrepo" style="stroke:#E7E7E7;stroke-width:1;"/><polygon fill="#E7E7E7" points="1554.6122,819.35,1548.1804,811.8914,1550.0905,817.216,1544.7659,819.1261,1554.6122,819.35" style="stroke:#E7E7E7;stroke-width:1;"/><text fill="#FFFFFF" font-family="sans-serif" font-size="13" lengthAdjust="spacing" textLength="89.8257" x="1440.7" y="505.0669">Rebases/fixes</text></g><!--link guardian to GMN34--><g class="link" data-entity-1="guardian" data-entity-2="GMN34" data-source-line="45" data-uid="lnk36" id="link_guardian_GMN34"><path d="M363.6704,500.1868 C363.663,500.5385 363.6558,500.9009 363.6488,501.2736 C363.6348,502.0191 363.6219,502.8062 363.6104,503.6339 C363.5186,510.2555 363.5216,519.4702 363.8595,530.6659 C364.5353,553.0575 366.5506,583.3738 371.8263,616.72 C382.3775,683.4125 405.97,762.225 457.97,814 C498.44,854.3 558.52,873.8 611.54,883.13" fill="none" id="guardian-GMN34" style="stroke:#E7E7E7;stroke-width:1;stroke-dasharray:7.0,7.0;"/></g><!--SRC=[VLHBRjim4Dth50CjYgI8xQAxPb70-THncm11cpIRRiOI9KyZam999N6B7A07wSLwaiwCACUrWNfXaSCtlpUFR4mL8JhmL2yZbEHD4SdPBCCYEW_vRJ0-1mpGyIAJKxHrOo3_R5etcdNeIq8BfvVpoStjN97rOFoP0VyAjsgTDJP2_gLWwokOTYL5XGOsx8BEfZCuwQWfK-8Iwrq8vqRoS6vhiaP1NYsxk9d7TWddJwtpVJwZorqO5mvp6usliEZ3nOuKf7zI98n6xpULy5VtMqa7qrO2Zg6cJO-38RazPrc94HSOcCrnJH64qa1C-xhdaI93NQAnSi88v6xndOSG9Wf9cty0tbJfL5Rz4Sd4BiwdPsfV6Yotx2qMzwFNO_deiIo2bBSrxHd5YsunbBNi5ll3dLwdyI-nfVs9DOOR3QckVhCBklPEs-chI1ifHBIdr0c5nohAyCqUiEiARHcE4gNWMj5kECopZGR5Qo3oMEh0CapGOhF-eJ4QvvZ_nEEHzYwi_2_6dQUeldrMJIzJtFSH9hJUjd6S5z17Oer5SQv5cttfh1ZrLRWw3b7OzuPlPcryW4Vdxwl6FOhpwVnemo9xPXk9faR4yQlnL949G2pjccjUvoyudR6Whj5pZ9U-ysoGigXaGvbgwULCTdrnV6DOK1HKjLal_mJfozlkdmNb7emtvLYxNpLvbYQtDoObT5BHavIKMHTDUg9SjQ57zVF9hE53P_NLmeQxF5Rp2AwClsVfSam33yf5WVgqzSSdPD6l8HZqnP8lZuS5zokIedIXHl0HlHlTaUKu7WAjg47X4Gx-_FhzPlpkxM72wUF1SwK7CqXnc5P2w4jqTJcy3yQM83tz1G00]--></g></svg>